<!DOCTYPE svg PUBLIC "-//W3C//DTD SVG 20010904//EN"
 "http://www.w3.org/TR/2001/REC-SVG-20010904/DTD/svg10.dtd">
<svg version="1.0" xmlns="http://www.w3.org/2000/svg"
 class="house"
 viewBox="0 0 128.000000 128.000000"
 preserveAspectRatio="xMidYMid meet">

<g transform="translate(0.000000,128.000000) scale(0.100000,-0.100000)"
 stroke="none">
<path d="M317 962 c-174 -174 -317 -322 -317 -328 0 -6 25 -35 56 -64 l55 -53
35 34 34 33 2 -290 3 -289 455 0 455 0 3 289 2 290 34 -33 35 -34 55 53 c31
29 56 58 56 64 0 6 -40 52 -90 101 l-90 90 0 152 c0 177 8 166 -120 161 l-75
-3 -3 -47 c-2 -27 -6 -48 -10 -48 -4 0 -61 54 -127 120 -66 66 -122 120 -125
120 -3 0 -148 -143 -323 -318z m618 -32 l289 -289 -29 -31 -29 -31 -263 263
-263 263 -263 -263 -263 -263 -29 31 -29 31 289 289 c160 160 292 290 295 290
3 0 135 -130 295 -290z m115 53 l0 -107 -50 49 c-49 48 -50 51 -50 107 l0 58
50 0 50 0 0 -107z m-203 -145 l203 -203 0 -292 0 -293 -115 0 -115 0 0 208 c0
148 -3 211 -12 220 -17 17 -319 17 -336 0 -9 -9 -12 -72 -12 -220 l0 -208
-115 0 -115 0 0 292 0 293 202 202 c112 112 205 203 208 203 3 0 96 -91 207
-202z m-77 -593 l0 -195 -130 0 -130 0 0 195 0 195 130 0 130 0 0 -195z"/>
</g>
</svg>
