<!DOCTYPE svg PUBLIC "-//W3C//DTD SVG 20010904//EN"
 "http://www.w3.org/TR/2001/REC-SVG-20010904/DTD/svg10.dtd">
<svg version="1.0" xmlns="http://www.w3.org/2000/svg"
 class="backet" 
 viewBox="0 0 128.000000 128.000000"
 preserveAspectRatio="xMidYMid meet">

<g transform="translate(0.000000,128.000000) scale(0.100000,-0.100000)"
 stroke="none">
<path d="M12 1268 c-7 -7 -12 -29 -12 -50 0 -43 19 -58 72 -58 l33 0 88 -294
c94 -311 94 -308 47 -351 -50 -45 -66 -128 -34 -174 35 -49 53 -51 503 -51
231 0 426 3 435 6 12 4 16 20 16 55 0 27 -1 50 -2 51 -2 1 -194 5 -427 8
l-424 5 43 50 43 50 303 5 c287 5 304 6 331 26 20 15 60 87 138 250 120 252
131 293 87 336 l-23 23 -502 5 -502 5 -13 40 c-22 66 -36 75 -117 75 -42 0
-76 -5 -83 -12z"/>
<path d="M288 213 c-102 -64 -39 -230 79 -208 20 3 49 19 65 35 23 23 28 37
28 75 0 40 -5 52 -34 81 -27 27 -42 34 -72 34 -22 0 -51 -8 -66 -17z"/>
<path d="M989 216 c-15 -9 -34 -31 -43 -51 -44 -92 41 -187 139 -155 114 38
94 205 -25 216 -28 3 -55 -1 -71 -10z"/>
</g>
</svg>
