
<!DOCTYPE svg PUBLIC "-//W3C//DTD SVG 20010904//EN"
 "http://www.w3.org/TR/2001/REC-SVG-20010904/DTD/svg10.dtd">
<svg version="1.0" xmlns="http://www.w3.org/2000/svg"
 class="user_key" viewBox="0 0 128.000000 128.000000"
 preserveAspectRatio="xMidYMid meet">

<g transform="translate(0.000000,128.000000) scale(0.100000,-0.100000)"
 stroke="none">
<path d="M730 1265 c-236 -66 -375 -328 -295 -555 l16 -44 -226 -226 -225
-225 0 -108 0 -107 108 0 108 0 37 38 c29 30 37 46 37 75 0 36 1 37 37 37 30
0 45 8 80 42 36 35 43 49 43 80 0 37 1 38 37 38 33 0 46 8 108 70 l71 71 42
-15 c287 -102 595 138 569 444 -14 166 -123 313 -277 371 -73 28 -197 34 -270
14z m247 -87 c80 -29 172 -121 201 -201 29 -77 30 -186 1 -262 -27 -73 -104
-156 -177 -192 -50 -25 -68 -28 -153 -28 -80 0 -104 4 -148 24 l-52 25 -82
-82 c-82 -82 -83 -82 -135 -82 l-52 0 0 -53 c0 -45 -4 -57 -28 -80 -24 -23
-37 -27 -85 -27 l-57 0 0 -57 c0 -74 -17 -93 -82 -93 l-48 0 0 61 0 61 231
229 232 228 -23 48 c-35 73 -39 199 -9 278 30 80 121 173 199 203 77 29 189
29 267 0z"/>
<path d="M875 1066 c-95 -42 -118 -164 -46 -237 74 -73 196 -48 237 48 19 45
17 77 -6 123 -34 67 -117 96 -185 66z m107 -83 c24 -22 24 -77 -2 -103 -42
-42 -120 -8 -120 52 0 58 78 91 122 51z"/>
</g>
</svg>
