<!DOCTYPE svg PUBLIC "-//W3C//DTD SVG 20010904//EN"
 "http://www.w3.org/TR/2001/REC-SVG-20010904/DTD/svg10.dtd">
<svg version="1.0" xmlns="http://www.w3.org/2000/svg"
 viewBox="0 0 128.000000 128.000000"
 preserveAspectRatio="xMidYMid meet">

<g transform="translate(0.000000,128.000000) scale(0.100000,-0.100000)"
 stroke="none">
<path d="M502 1265 c-303 -69 -517 -352 -499 -660 10 -164 70 -298 187 -415
76 -75 148 -121 252 -158 63 -22 89 -26 193 -27 97 0 133 4 190 22 98 31 189
87 265 163 75 76 121 148 158 252 23 64 26 88 26 198 0 110 -3 134 -26 198
-37 104 -83 176 -158 252 -75 75 -167 132 -260 161 -85 27 -242 34 -328 14z
m283 -80 c92 -24 174 -73 250 -150 115 -115 165 -234 165 -395 0 -161 -50
-280 -165 -395 -115 -115 -234 -165 -395 -165 -161 0 -280 50 -395 165 -115
115 -165 234 -165 395 0 161 50 280 165 395 75 75 157 125 246 149 72 20 220
20 294 1z"/>
<path d="M521 1114 c-260 -70 -421 -337 -356 -589 69 -262 337 -426 590 -360
262 69 426 337 360 590 -69 262 -341 427 -594 359z m294 -99 c77 -37 163 -123
201 -200 27 -56 29 -68 29 -175 0 -107 -2 -119 -29 -175 -38 -77 -124 -163
-201 -201 -56 -27 -68 -29 -175 -29 -107 0 -119 2 -175 29 -77 38 -163 124
-201 201 -27 56 -29 68 -29 175 0 105 2 120 27 170 51 105 136 182 241 221 82
30 232 23 312 -16z"/>
<path d="M619 968 c-6 -7 -30 -49 -52 -93 l-42 -80 -80 -12 c-44 -7 -90 -15
-102 -18 -42 -10 -28 -46 45 -118 l69 -68 -13 -72 c-29 -160 -17 -170 111
-104 l85 44 85 -44 c128 -66 140 -56 111 104 l-13 72 69 68 c99 98 93 116 -48
136 l-89 12 -42 80 c-43 84 -58 105 -73 105 -5 0 -14 -6 -21 -12z m50 -174
c28 -63 36 -69 115 -79 l59 -7 -48 -48 -48 -48 7 -72 7 -71 -60 31 -61 30 -61
-30 -60 -31 7 71 7 72 -48 48 -48 48 59 7 c79 10 87 16 115 79 13 31 26 56 29
56 3 0 16 -25 29 -56z"/>
</g>
</svg>
